<svg width="88" height="99" viewBox="0 0 88 99" fill="none" xmlns="http://www.w3.org/2000/svg">
<path d="M12.5752 1.5H28.7734C30.8904 1.5 32.6063 3.21607 32.6064 5.33301V7.04785L32.6162 7.39941C32.8019 11.0128 35.8313 13.833 39.4961 13.833C43.279 13.833 46.3856 10.8282 46.3857 7.04785V5.33301L46.3906 5.13574C46.4901 3.17583 48.0615 1.60426 50.0215 1.50488L50.2188 1.5H75.4248C81.5581 1.5 86.4998 6.38795 86.5 12.333V24.7725L86.4951 24.957C86.4045 26.7935 84.9701 28.3353 83.0684 28.5449L82.877 28.5605C71.8245 29.2431 63.1467 38.3784 63.1465 49.333C63.1465 60.2877 71.8245 69.4219 82.877 70.1045V70.1055C84.9375 70.2334 86.5 71.916 86.5 73.8945V86.333L86.4854 86.8877C86.1896 92.5794 81.3665 97.167 75.4248 97.167H50.2188L50.0215 97.1621C47.9961 97.0594 46.3857 95.3839 46.3857 93.333V91.6191L46.376 91.2666C46.19 87.6535 43.1607 84.833 39.4961 84.833C35.7132 84.833 32.6064 87.8387 32.6064 91.6191V93.333L32.6016 93.5303C32.499 95.5558 30.8245 97.167 28.7734 97.167H12.5752C6.44178 97.167 1.5 92.2782 1.5 86.333V12.333L1.51465 11.7793C1.80072 6.27099 6.32696 1.79745 12.0039 1.51465L12.5752 1.5ZM39.4961 53.1191C35.7133 53.1192 32.6067 56.124 32.6064 59.9043V70.4766L32.6162 70.8281C32.8019 74.4415 35.8314 77.2617 39.4961 77.2617C43.2789 77.2617 46.3855 74.2569 46.3857 70.4766V59.9043L46.376 59.5527C46.1902 55.9394 43.1608 53.1191 39.4961 53.1191ZM39.4961 21.4043C35.7132 21.4043 32.6065 24.41 32.6064 28.1904V38.7617L32.6162 39.1143C32.8021 42.7274 35.8315 45.5478 39.4961 45.5479C43.279 45.5479 46.3857 42.5422 46.3857 38.7617V28.1904L46.376 27.8389C46.1904 24.2253 43.161 21.4043 39.4961 21.4043Z" stroke="#FF8036" stroke-width="3"/>
<mask id="path-2-inside-1_1255_2428" fill="white">
<path d="M75.4245 3.8147e-06C82.3586 5.02891e-06 87.9995 5.53221 87.9997 12.333V24.7725C87.9996 27.5561 85.8085 29.8812 82.9704 30.0576C72.6948 30.6919 64.6463 39.1846 64.6461 49.333C64.6461 59.4816 72.6947 67.9741 82.9704 68.6084C85.8085 68.7848 87.9997 71.1109 87.9997 73.8945V86.333C87.9997 93.134 82.3587 98.667 75.4245 98.667H50.2184C47.2731 98.6668 44.8854 96.2784 44.8854 93.333V91.6191C44.8854 88.6944 42.4778 86.333 39.4958 86.333C36.9165 86.3332 34.7684 88.1001 34.235 90.4697C24.5717 80.0115 18.6667 66.029 18.6667 50.667C18.6667 34.8859 24.8979 20.56 35.0338 10.0156C36.0021 11.4152 37.6369 12.3329 39.4958 12.333C42.4778 12.333 44.8853 9.9725 44.8854 7.04786V5.33301C44.8856 2.38777 47.2732 0.000205678 50.2184 3.8147e-06H75.4245ZM39.4958 54.6191C36.514 54.6193 34.1073 56.9799 34.1071 59.9043V70.4766C34.1073 73.401 36.514 75.7615 39.4958 75.7617C42.4777 75.7617 44.8852 73.4012 44.8854 70.4766V59.9043C44.8852 56.9798 42.4777 54.6191 39.4958 54.6191ZM39.4958 22.9043C36.5139 22.9045 34.1071 25.2658 34.1071 28.1904V38.7617C34.1071 41.6864 36.5138 44.0477 39.4958 44.0479C42.4778 44.0479 44.8854 41.6865 44.8854 38.7617V28.1904C44.8854 25.2657 42.4778 22.9043 39.4958 22.9043Z"/>
</mask>
<path d="M75.4245 3.8147e-06L75.4245 -3H75.4245V3.8147e-06ZM87.9997 12.333L90.9997 12.333L90.9997 12.3329L87.9997 12.333ZM87.9997 24.7725L90.9997 24.7725V24.7725H87.9997ZM82.9704 30.0576L83.1552 33.0519L83.1565 33.0518L82.9704 30.0576ZM64.6461 49.333L61.6461 49.333L61.6461 49.333L64.6461 49.333ZM82.9704 68.6084L83.1564 65.6142L83.1552 65.6141L82.9704 68.6084ZM87.9997 73.8945L84.9997 73.8945V73.8945H87.9997ZM87.9997 86.333L90.9997 86.333V86.333H87.9997ZM75.4245 98.667L75.4245 95.667H75.4245V98.667ZM50.2184 98.667L50.2182 101.667H50.2184V98.667ZM44.8854 93.333L47.8854 93.333V93.333H44.8854ZM44.8854 91.6191L41.8854 91.6191V91.6191H44.8854ZM39.4958 86.333L39.4958 83.333L39.4956 83.333L39.4958 86.333ZM34.235 90.4697L32.0316 92.5057L35.9076 96.7004L37.1618 91.1285L34.235 90.4697ZM18.6667 50.667L15.6667 50.667L15.6667 50.667L18.6667 50.667ZM35.0338 10.0156L37.501 8.30887L35.4137 5.29154L32.8711 7.93661L35.0338 10.0156ZM39.4958 12.333L39.4956 15.333L39.4958 15.333L39.4958 12.333ZM44.8854 7.04786L47.8854 7.04799V7.04786H44.8854ZM44.8854 5.33301L41.8854 5.33283V5.33301H44.8854ZM50.2184 3.8147e-06L50.2184 -3L50.2182 -3L50.2184 3.8147e-06ZM39.4958 54.6191L39.4958 51.6191L39.4956 51.6191L39.4958 54.6191ZM34.1071 59.9043L31.1071 59.904V59.9043H34.1071ZM34.1071 70.4766L31.1071 70.4766L31.1071 70.4768L34.1071 70.4766ZM39.4958 75.7617L39.4956 78.7617L39.4958 78.7617L39.4958 75.7617ZM44.8854 70.4766L47.8854 70.4768V70.4766H44.8854ZM44.8854 59.9043L47.8854 59.9043L47.8854 59.904L44.8854 59.9043ZM39.4958 22.9043L39.4958 19.9043L39.4956 19.9043L39.4958 22.9043ZM34.1071 28.1904L31.1071 28.1904V28.1904H34.1071ZM34.1071 38.7617L37.1071 38.7617V38.7617H34.1071ZM39.4958 44.0479L39.4956 47.0479L39.4958 47.0479L39.4958 44.0479ZM44.8854 38.7617L47.8854 38.7617V38.7617H44.8854ZM44.8854 28.1904L47.8854 28.1904L47.8854 28.1904L44.8854 28.1904ZM75.4245 3.8147e-06L75.4245 3C80.757 3 84.9995 7.24377 84.9997 12.3331L87.9997 12.333L90.9997 12.3329C90.9994 3.82065 83.9602 -2.99999 75.4245 -3L75.4245 3.8147e-06ZM87.9997 12.333H84.9997V24.7725H87.9997H90.9997V12.333H87.9997ZM87.9997 24.7725L84.9997 24.7724C84.9996 25.9455 84.067 26.9837 82.7843 27.0634L82.9704 30.0576L83.1565 33.0518C87.5501 32.7788 90.9996 29.1667 90.9997 24.7725L87.9997 24.7725ZM82.9704 30.0576L82.7855 27.0633C70.9557 27.7935 61.6463 37.5718 61.6461 49.333L64.6461 49.333L67.6461 49.3331C67.6463 40.7973 74.434 33.5903 83.1552 33.0519L82.9704 30.0576ZM64.6461 49.333L61.6461 49.333C61.6461 61.0944 70.9556 70.8725 82.7855 71.6027L82.9704 68.6084L83.1552 65.6141C74.4338 65.0758 67.6461 57.8688 67.6461 49.333L64.6461 49.333ZM82.9704 68.6084L82.7843 71.6026C84.0663 71.6823 84.9997 72.7208 84.9997 73.8945L87.9997 73.8945L90.9997 73.8945C90.9997 69.5009 87.5508 65.8873 83.1564 65.6142L82.9704 68.6084ZM87.9997 73.8945H84.9997V86.333H87.9997H90.9997V73.8945H87.9997ZM87.9997 86.333L84.9997 86.333C84.9997 91.4226 80.7569 95.667 75.4245 95.667L75.4245 98.667L75.4245 101.667C83.9606 101.667 90.9997 94.8453 90.9997 86.333L87.9997 86.333ZM75.4245 98.667V95.667H50.2184V98.667V101.667H75.4245V98.667ZM50.2184 98.667L50.2186 95.667C48.9305 95.6669 47.8854 94.6221 47.8854 93.333L44.8854 93.333L41.8854 93.333C41.8854 97.9347 45.6156 101.667 50.2182 101.667L50.2184 98.667ZM44.8854 93.333H47.8854V91.6191H44.8854H41.8854V93.333H44.8854ZM44.8854 91.6191L47.8854 91.6191C47.8854 86.983 44.0796 83.333 39.4958 83.333L39.4958 86.333L39.4958 89.333C40.8761 89.333 41.8854 90.4058 41.8854 91.6191L44.8854 91.6191ZM39.4958 86.333L39.4956 83.333C35.5232 83.3333 32.1519 86.063 31.3082 89.8109L34.235 90.4697L37.1618 91.1285C37.3849 90.1372 38.3098 89.3331 39.496 89.333L39.4958 86.333ZM34.235 90.4697L36.4384 88.4338C27.267 78.5079 21.6667 65.2449 21.6667 50.667L18.6667 50.667L15.6667 50.667C15.6667 66.813 21.8764 81.5151 32.0316 92.5057L34.235 90.4697ZM18.6667 50.667H21.6667C21.6667 35.6917 27.5762 22.1027 37.1966 12.0947L35.0338 10.0156L32.8711 7.93661C22.2195 19.0173 15.6667 34.0801 15.6667 50.667H18.6667ZM35.0338 10.0156L32.5667 11.7224C34.0822 13.9131 36.6294 15.3328 39.4956 15.333L39.4958 12.333L39.496 9.33301C38.6443 9.33295 37.9219 8.91731 37.501 8.30887L35.0338 10.0156ZM39.4958 12.333L39.4958 15.333C44.0789 15.333 47.8852 11.6845 47.8854 7.04799L44.8854 7.04786L41.8854 7.04772C41.8854 8.26048 40.8766 9.33301 39.4958 9.33301L39.4958 12.333ZM44.8854 7.04786H47.8854V5.33301H44.8854H41.8854V7.04786H44.8854ZM44.8854 5.33301L47.8854 5.33319C47.8855 4.04469 48.9301 3.00009 50.2186 3L50.2184 3.8147e-06L50.2182 -3C45.6163 -2.99968 41.8857 0.730849 41.8854 5.33283L44.8854 5.33301ZM50.2184 3.8147e-06V3H75.4245V3.8147e-06V-3H50.2184V3.8147e-06ZM39.4958 54.6191L39.4956 51.6191C34.9121 51.6194 31.1075 55.2684 31.1071 59.904L34.1071 59.9043L37.1071 59.9046C37.1072 58.6913 38.1158 57.6192 39.496 57.6191L39.4958 54.6191ZM34.1071 59.9043H31.1071V70.4766H34.1071H37.1071V59.9043H34.1071ZM34.1071 70.4766L31.1071 70.4768C31.1074 75.1125 34.9122 78.7614 39.4956 78.7617L39.4958 75.7617L39.496 72.7617C38.1158 72.7616 37.1072 71.6896 37.1071 70.4764L34.1071 70.4766ZM39.4958 75.7617L39.4958 78.7617C44.079 78.7617 47.8851 75.1131 47.8854 70.4768L44.8854 70.4766L41.8854 70.4764C41.8853 71.6892 40.8765 72.7617 39.4958 72.7617L39.4958 75.7617ZM44.8854 70.4766H47.8854V59.9043H44.8854H41.8854V70.4766H44.8854ZM44.8854 59.9043L47.8854 59.904C47.885 55.2678 44.079 51.6191 39.4958 51.6191L39.4958 54.6191L39.4958 57.6191C40.8764 57.6191 41.8853 58.6917 41.8854 59.9046L44.8854 59.9043ZM39.4958 22.9043L39.4956 19.9043C34.9115 19.9046 31.1071 23.5549 31.1071 28.1904L34.1071 28.1904L37.1071 28.1905C37.1071 26.9767 38.1162 25.9044 39.496 25.9043L39.4958 22.9043ZM34.1071 28.1904H31.1071V38.7617H34.1071H37.1071V28.1904H34.1071ZM34.1071 38.7617L31.1071 38.7617C31.1071 43.3973 34.9115 47.0476 39.4956 47.0479L39.4958 44.0479L39.496 41.0479C38.1162 41.0478 37.1071 39.9754 37.1071 38.7617L34.1071 38.7617ZM39.4958 44.0479L39.4958 47.0479C44.0796 47.0479 47.8854 43.3979 47.8854 38.7617L44.8854 38.7617L41.8854 38.7617C41.8854 39.9751 40.8761 41.0479 39.4958 41.0479L39.4958 44.0479ZM44.8854 38.7617H47.8854V28.1904H44.8854H41.8854V38.7617H44.8854ZM44.8854 28.1904L47.8854 28.1904C47.8854 23.5543 44.0796 19.9043 39.4958 19.9043L39.4958 22.9043L39.4958 25.9043C40.8761 25.9043 41.8854 26.9771 41.8854 28.1905L44.8854 28.1904Z" fill="#FF8036" mask="url(#path-2-inside-1_1255_2428)"/>
</svg>
