<svg width="92" height="103" viewBox="0 0 92 103" fill="none" xmlns="http://www.w3.org/2000/svg">
<path fill-rule="evenodd" clip-rule="evenodd" d="M84.97 32.0581C87.8084 31.8819 90 29.5562 90 26.7724V14.3333C90 7.53239 84.3592 2.00001 77.4249 2L52.2188 2C49.2733 2 46.8855 4.38782 46.8855 7.33334V9.04761C46.8855 11.9724 44.4782 14.3333 41.4962 14.3333C38.5141 14.3333 36.1068 11.9724 36.1068 9.04761V7.33334C36.1068 4.38782 33.719 2 30.7735 2L14.5751 2C7.64081 2 2 7.53239 2 14.3333V88.3333C2 95.1343 7.64081 100.667 14.5751 100.667H30.7735C33.719 100.667 36.1068 98.2789 36.1068 95.3333V93.6191C36.1068 90.6943 38.514 88.3333 41.4961 88.3333C44.4782 88.3333 46.8854 90.6943 46.8854 93.6191V95.3333C46.8854 98.2789 49.2733 100.667 52.2188 100.667L77.4249 100.667C84.3592 100.667 90 95.1343 90 88.3333V75.8943C90 73.1105 87.8083 70.7848 84.97 70.6086C74.6943 69.9743 66.6463 61.4819 66.6463 51.3333C66.6463 41.1848 74.6943 32.6924 84.97 32.0581ZM41.4961 77.7619C44.4782 77.7619 46.8854 75.4009 46.8854 72.4762V61.9048C46.8854 58.98 44.4782 56.619 41.4961 56.619C38.5141 56.619 36.1068 58.98 36.1068 61.9048V72.4762C36.1068 75.4009 38.5141 77.7619 41.4961 77.7619ZM41.4961 46.0476C44.4782 46.0476 46.8855 43.6867 46.8855 40.7619V30.1905C46.8855 27.2657 44.4782 24.9048 41.4962 24.9048C38.5141 24.9048 36.1068 27.2657 36.1068 30.1905V40.7619C36.1068 43.6867 38.5141 46.0476 41.4961 46.0476Z" stroke="#FF8036" stroke-width="4"/>
<path d="M77.4245 2L77.4245 3.8147e-06H77.4245V2ZM89.9997 14.333L91.9997 14.333L91.9997 14.333L89.9997 14.333ZM89.9997 26.7725L91.9997 26.7725V26.7725H89.9997ZM84.9704 32.0576L85.0936 34.0538L85.0944 34.0538L84.9704 32.0576ZM66.6461 51.333L64.6461 51.333L64.6461 51.333L66.6461 51.333ZM84.9704 70.6084L85.0944 68.6123L85.0936 68.6122L84.9704 70.6084ZM89.9997 75.8945L87.9997 75.8945V75.8945H89.9997ZM89.9997 88.333L91.9997 88.333V88.333H89.9997ZM77.4245 100.667L77.4245 98.667H77.4245V100.667ZM52.2184 100.667L52.2183 102.667H52.2184V100.667ZM46.8854 95.333L48.8854 95.333V95.333H46.8854ZM46.8854 93.6191L44.8854 93.6191V93.6191H46.8854ZM41.4958 88.333L41.4958 86.333L41.4956 86.333L41.4958 88.333ZM36.235 92.4697L34.7661 93.827L37.3501 96.6235L38.1862 92.9089L36.235 92.4697ZM20.6667 52.667L18.6667 52.667L18.6667 52.667L20.6667 52.667ZM37.0338 12.0156L38.6786 10.8778L37.2871 8.86623L35.592 10.6296L37.0338 12.0156ZM41.4958 14.333L41.4956 16.333L41.4958 16.333L41.4958 14.333ZM46.8854 9.04786L48.8854 9.04795V9.04786H46.8854ZM46.8854 7.33301L44.8854 7.33289V7.33301H46.8854ZM52.2184 2L52.2184 3.81e-06L52.2183 3.81939e-06L52.2184 2ZM41.4958 56.6191L41.4958 54.6191L41.4956 54.6191L41.4958 56.6191ZM36.1071 61.9043L34.1071 61.9041V61.9043H36.1071ZM36.1071 72.4766L34.1071 72.4766L34.1071 72.4767L36.1071 72.4766ZM41.4958 77.7617L41.4956 79.7617L41.4958 79.7617L41.4958 77.7617ZM46.8854 72.4766L48.8854 72.4767V72.4766H46.8854ZM46.8854 61.9043L48.8854 61.9043L48.8854 61.9041L46.8854 61.9043ZM41.4958 24.9043L41.4958 22.9043L41.4956 22.9043L41.4958 24.9043ZM36.1071 30.1904L34.1071 30.1904V30.1904H36.1071ZM36.1071 40.7617L38.1071 40.7617V40.7617H36.1071ZM41.4958 46.0479L41.4956 48.0479L41.4958 48.0479L41.4958 46.0479ZM46.8854 40.7617L48.8854 40.7617V40.7617H46.8854ZM46.8854 30.1904L48.8854 30.1904L48.8854 30.1904L46.8854 30.1904ZM77.4245 2L77.4245 4C83.2909 4 87.9995 8.67325 87.9997 14.3331L89.9997 14.333L91.9997 14.333C91.9995 6.39117 85.4264 5.21588e-06 77.4245 3.8147e-06L77.4245 2ZM89.9997 14.333H87.9997V26.7725H89.9997H91.9997V14.333H89.9997ZM89.9997 26.7725L87.9997 26.7724C87.9996 28.4824 86.6475 29.9495 84.8463 30.0615L84.9704 32.0576L85.0944 34.0538C88.9695 33.8129 91.9996 30.6298 91.9997 26.7725L89.9997 26.7725ZM84.9704 32.0576L84.8471 30.0614C73.5354 30.7597 64.6463 40.1094 64.6461 51.333L66.6461 51.333L68.6461 51.333C68.6463 42.2598 75.8543 34.6241 85.0936 34.0538L84.9704 32.0576ZM66.6461 51.333L64.6461 51.333C64.6461 62.5568 73.5353 71.9064 84.8471 72.6046L84.9704 70.6084L85.0936 68.6122C75.8541 68.0419 68.6461 60.4064 68.6461 51.333L66.6461 51.333ZM84.9704 70.6084L84.8463 72.6046C86.6471 72.7165 87.9997 74.1841 87.9997 75.8945L89.9997 75.8945L91.9997 75.8945C91.9997 72.0376 88.97 68.8531 85.0944 68.6123L84.9704 70.6084ZM89.9997 75.8945H87.9997V88.333H89.9997H91.9997V75.8945H89.9997ZM89.9997 88.333L87.9997 88.333C87.9997 93.9931 83.2908 98.667 77.4245 98.667L77.4245 100.667L77.4245 102.667C85.4266 102.667 91.9997 96.2748 91.9997 88.333L89.9997 88.333ZM77.4245 100.667V98.667H52.2184V100.667V102.667H77.4245V100.667ZM52.2184 100.667L52.2185 98.667C50.378 98.6669 48.8854 97.1742 48.8854 95.333L46.8854 95.333L44.8854 95.333C44.8854 99.3826 48.1681 102.667 52.2183 102.667L52.2184 100.667ZM46.8854 95.333H48.8854V93.6191H46.8854H44.8854V95.333H46.8854ZM46.8854 93.6191L48.8854 93.6191C48.8854 89.5534 45.5457 86.333 41.4958 86.333L41.4958 88.333L41.4958 90.333C43.41 90.333 44.8854 91.8353 44.8854 93.6191L46.8854 93.6191ZM41.4958 88.333L41.4956 86.333C37.9877 86.3332 35.0241 88.742 34.2838 92.0305L36.235 92.4697L38.1862 92.9089C38.5128 91.4581 39.8454 90.3331 41.4959 90.333L41.4958 88.333ZM36.235 92.4697L37.7039 91.1124C28.3685 81.0091 22.6667 67.5063 22.6667 52.667L20.6667 52.667L18.6667 52.667C18.6667 68.5517 24.7748 83.0139 34.7661 93.827L36.235 92.4697ZM20.6667 52.667H22.6667C22.6667 37.4231 28.6834 23.5885 38.4757 13.4016L37.0338 12.0156L35.592 10.6296C25.1123 21.5316 18.6667 36.3487 18.6667 52.667H20.6667ZM37.0338 12.0156L35.3891 13.1535C36.7222 15.0805 38.9652 16.3328 41.4956 16.333L41.4958 14.333L41.4959 12.333C40.3085 12.3329 39.282 11.7499 38.6786 10.8778L37.0338 12.0156ZM41.4958 14.333L41.4958 16.333C45.5452 16.333 48.8852 13.1139 48.8854 9.04795L46.8854 9.04786L44.8854 9.04776C44.8853 10.8312 43.4103 12.333 41.4958 12.333L41.4958 14.333ZM46.8854 9.04786H48.8854V7.33301H46.8854H44.8854V9.04786H46.8854ZM46.8854 7.33301L48.8854 7.33313C48.8855 5.49238 50.3778 4.00013 52.2186 4L52.2184 2L52.2183 3.81939e-06C48.1686 0.000281381 44.8856 3.28316 44.8854 7.33289L46.8854 7.33301ZM52.2184 2V4H77.4245V2V3.8147e-06H52.2184V2ZM41.4958 56.6191L41.4956 54.6191C37.4461 54.6194 34.1074 57.8389 34.1071 61.9041L36.1071 61.9043L38.1071 61.9045C38.1072 60.1208 39.5819 58.6193 41.4959 58.6191L41.4958 56.6191ZM36.1071 61.9043H34.1071V72.4766H36.1071H38.1071V61.9043H36.1071ZM36.1071 72.4766L34.1071 72.4767C34.1074 76.542 37.4461 79.7615 41.4956 79.7617L41.4958 77.7617L41.4959 75.7617C39.5818 75.7616 38.1072 74.2601 38.1071 72.4764L36.1071 72.4766ZM41.4958 77.7617L41.4958 79.7617C45.5452 79.7617 48.8851 76.5425 48.8854 72.4767L46.8854 72.4766L44.8854 72.4764C44.8853 74.2598 43.4102 75.7617 41.4958 75.7617L41.4958 77.7617ZM46.8854 72.4766H48.8854V61.9043H46.8854H44.8854V72.4766H46.8854ZM46.8854 61.9043L48.8854 61.9041C48.8851 57.8385 45.5452 54.6191 41.4958 54.6191L41.4958 56.6191L41.4958 58.6191C43.4102 58.6191 44.8853 60.121 44.8854 61.9045L46.8854 61.9043ZM41.4958 24.9043L41.4956 22.9043C37.4456 22.9046 34.1071 26.1252 34.1071 30.1904L36.1071 30.1904L38.1071 30.1904C38.1071 28.4064 39.5821 26.9044 41.4959 26.9043L41.4958 24.9043ZM36.1071 30.1904H34.1071V40.7617H36.1071H38.1071V30.1904H36.1071ZM36.1071 40.7617L34.1071 40.7617C34.1071 44.827 37.4456 48.0476 41.4956 48.0479L41.4958 46.0479L41.4959 44.0479C39.5821 44.0477 38.1071 42.5458 38.1071 40.7617L36.1071 40.7617ZM41.4958 46.0479L41.4958 48.0479C45.5457 48.0479 48.8854 44.8274 48.8854 40.7617L46.8854 40.7617L44.8854 40.7617C44.8854 42.5455 43.41 44.0479 41.4958 44.0479L41.4958 46.0479ZM46.8854 40.7617H48.8854V30.1904H46.8854H44.8854V40.7617H46.8854ZM46.8854 30.1904L48.8854 30.1904C48.8854 26.1248 45.5457 22.9043 41.4958 22.9043L41.4958 24.9043L41.4958 26.9043C43.41 26.9043 44.8854 28.4066 44.8854 30.1904L46.8854 30.1904Z" fill="#FF8036"/>
</svg>
