<svg width="92" height="103" viewBox="0 0 92 103" fill="none" xmlns="http://www.w3.org/2000/svg">
<path fill-rule="evenodd" clip-rule="evenodd" d="M84.97 32.0581C87.8084 31.8819 90 29.5562 90 26.7724V14.3333C90 7.53239 84.3592 2.00001 77.4249 2L52.2188 2C49.2733 2 46.8855 4.38782 46.8855 7.33334V9.04761C46.8855 11.9724 44.4782 14.3333 41.4962 14.3333C38.5141 14.3333 36.1068 11.9724 36.1068 9.04761V7.33334C36.1068 4.38782 33.719 2 30.7735 2L14.5751 2C7.64081 2 2 7.53239 2 14.3333V88.3333C2 95.1343 7.64081 100.667 14.5751 100.667H30.7735C33.719 100.667 36.1068 98.2789 36.1068 95.3333V93.6191C36.1068 90.6943 38.514 88.3333 41.4961 88.3333C44.4782 88.3333 46.8854 90.6943 46.8854 93.6191V95.3333C46.8854 98.2789 49.2733 100.667 52.2188 100.667L77.4249 100.667C84.3592 100.667 90 95.1343 90 88.3333V75.8943C90 73.1105 87.8083 70.7848 84.97 70.6086C74.6943 69.9743 66.6463 61.4819 66.6463 51.3333C66.6463 41.1848 74.6943 32.6924 84.97 32.0581ZM41.4961 77.7619C44.4782 77.7619 46.8854 75.4009 46.8854 72.4762V61.9048C46.8854 58.98 44.4782 56.619 41.4961 56.619C38.5141 56.619 36.1068 58.98 36.1068 61.9048V72.4762C36.1068 75.4009 38.5141 77.7619 41.4961 77.7619ZM41.4961 46.0476C44.4782 46.0476 46.8855 43.6867 46.8855 40.7619V30.1905C46.8855 27.2657 44.4782 24.9048 41.4962 24.9048C38.5141 24.9048 36.1068 27.2657 36.1068 30.1905V40.7619C36.1068 43.6867 38.5141 46.0476 41.4961 46.0476Z" stroke="#FF8036" stroke-width="3"/>
<path d="M77.4245 2L77.4245 0.500004H77.4245V2ZM89.9997 14.333L91.4997 14.333L91.4997 14.333L89.9997 14.333ZM89.9997 26.7725L91.4997 26.7725V26.7725H89.9997ZM84.9704 32.0576L85.0628 33.5548L85.0634 33.5547L84.9704 32.0576ZM66.6461 51.333L65.1461 51.333L65.1461 51.333L66.6461 51.333ZM84.9704 70.6084L85.0634 69.1113L85.0628 69.1113L84.9704 70.6084ZM89.9997 75.8945L88.4997 75.8945V75.8945H89.9997ZM89.9997 88.333L91.4997 88.333V88.333H89.9997ZM77.4245 100.667L77.4245 99.167H77.4245V100.667ZM52.2184 100.667L52.2183 102.167H52.2184V100.667ZM46.8854 95.333L48.3854 95.333V95.333H46.8854ZM46.8854 93.6191L45.3854 93.6191V93.6191H46.8854ZM41.4958 88.333L41.4958 86.833L41.4957 86.833L41.4958 88.333ZM36.235 92.4697L35.1333 93.4877L37.0713 95.5851L37.6984 92.7991L36.235 92.4697ZM20.6667 52.667L19.1667 52.667L19.1667 52.667L20.6667 52.667ZM37.0338 12.0156L38.2674 11.1622L37.2238 9.65358L35.9524 10.9761L37.0338 12.0156ZM41.4958 14.333L41.4957 15.833L41.4958 15.833L41.4958 14.333ZM46.8854 9.04786L48.3854 9.04792V9.04786H46.8854ZM46.8854 7.33301L45.3854 7.33292V7.33301H46.8854ZM52.2184 2L52.2184 0.500004L52.2183 0.500004L52.2184 2ZM41.4958 56.6191L41.4958 55.1191L41.4957 55.1191L41.4958 56.6191ZM36.1071 61.9043L34.6071 61.9042V61.9043H36.1071ZM36.1071 72.4766L34.6071 72.4766L34.6071 72.4767L36.1071 72.4766ZM41.4958 77.7617L41.4957 79.2617L41.4958 79.2617L41.4958 77.7617ZM46.8854 72.4766L48.3854 72.4767V72.4766H46.8854ZM46.8854 61.9043L48.3854 61.9043L48.3854 61.9042L46.8854 61.9043ZM41.4958 24.9043L41.4958 23.4043L41.4957 23.4043L41.4958 24.9043ZM36.1071 30.1904L34.6071 30.1904V30.1904H36.1071ZM36.1071 40.7617L37.6071 40.7617V40.7617H36.1071ZM41.4958 46.0479L41.4957 47.5479L41.4958 47.5479L41.4958 46.0479ZM46.8854 40.7617L48.3854 40.7617V40.7617H46.8854ZM46.8854 30.1904L48.3854 30.1904L48.3854 30.1904L46.8854 30.1904ZM77.4245 2L77.4245 3.5C83.5578 3.5 88.4995 8.38799 88.4997 14.3331L89.9997 14.333L91.4997 14.333C91.4995 6.67643 85.1594 0.500005 77.4245 0.500004L77.4245 2ZM89.9997 14.333H88.4997V26.7725H89.9997H91.4997V14.333H89.9997ZM89.9997 26.7725L88.4997 26.7724C88.4996 28.7508 86.9377 30.4325 84.8773 30.5605L84.9704 32.0576L85.0634 33.5547C88.6793 33.33 91.4996 30.3614 91.4997 26.7725L89.9997 26.7725ZM84.9704 32.0576L84.878 30.5605C73.8253 31.2427 65.1463 40.3782 65.1461 51.333L66.6461 51.333L68.1461 51.333C68.1463 41.991 75.5644 34.1411 85.0628 33.5548L84.9704 32.0576ZM66.6461 51.333L65.1461 51.333C65.1461 62.288 73.8252 71.4233 84.878 72.1056L84.9704 70.6084L85.0628 69.1113C75.5643 68.5249 68.1461 60.6752 68.1461 51.333L66.6461 51.333ZM84.9704 70.6084L84.8773 72.1055C86.9374 72.2335 88.4997 73.9158 88.4997 75.8945L89.9997 75.8945L91.4997 75.8945C91.4997 72.3059 88.6797 69.336 85.0634 69.1113L84.9704 70.6084ZM89.9997 75.8945H88.4997V88.333H89.9997H91.4997V75.8945H89.9997ZM89.9997 88.333L88.4997 88.333C88.4997 94.2783 83.5578 99.167 77.4245 99.167L77.4245 100.667L77.4245 102.167C85.1597 102.167 91.4997 95.9896 91.4997 88.333L89.9997 88.333ZM77.4245 100.667V99.167H52.2184V100.667V102.167H77.4245V100.667ZM52.2184 100.667L52.2185 99.167C50.1018 99.1669 48.3854 97.4502 48.3854 95.333L46.8854 95.333L45.3854 95.333C45.3854 99.1066 48.4443 102.167 52.2183 102.167L52.2184 100.667ZM46.8854 95.333H48.3854V93.6191H46.8854H45.3854V95.333H46.8854ZM46.8854 93.6191L48.3854 93.6191C48.3854 89.8387 45.2787 86.833 41.4958 86.833L41.4958 88.333L41.4958 89.833C43.677 89.833 45.3854 91.5501 45.3854 93.6191L46.8854 93.6191ZM41.4958 88.333L41.4957 86.833C38.2199 86.8332 35.4602 89.0815 34.7716 92.1403L36.235 92.4697L37.6984 92.7991C38.0767 91.1186 39.6132 89.8331 41.4959 89.833L41.4958 88.333ZM36.235 92.4697L37.3367 91.4518C27.9193 81.2597 22.1667 67.637 22.1667 52.667L20.6667 52.667L19.1667 52.667C19.1667 68.421 25.224 82.7633 35.1333 93.4877L36.235 92.4697ZM20.6667 52.667H22.1667C22.1667 37.2888 28.237 23.3314 38.1152 13.0551L37.0338 12.0156L35.9524 10.9761C25.5587 21.7887 19.1667 36.483 19.1667 52.667H20.6667ZM37.0338 12.0156L35.8003 12.869C37.0421 14.6642 39.1331 15.8329 41.4957 15.833L41.4958 14.333L41.4959 12.833C40.1406 12.8329 38.962 12.1663 38.2674 11.1622L37.0338 12.0156ZM41.4958 14.333L41.4958 15.833C45.2784 15.833 48.3852 12.8285 48.3854 9.04792L46.8854 9.04786L45.3854 9.04779C45.3853 11.1165 43.6772 12.833 41.4958 12.833L41.4958 14.333ZM46.8854 9.04786H48.3854V7.33301H46.8854H45.3854V9.04786H46.8854ZM46.8854 7.33301L48.3854 7.3331C48.3855 5.21623 50.1016 3.50015 52.2185 3.5L52.2184 2L52.2183 0.500004C48.4447 0.500262 45.3856 3.55931 45.3854 7.33292L46.8854 7.33301ZM52.2184 2V3.5H77.4245V2V0.500004H52.2184V2ZM41.4958 56.6191L41.4957 55.1191C37.7131 55.1194 34.6074 58.1242 34.6071 61.9042L36.1071 61.9043L37.6071 61.9044C37.6073 59.8356 39.3149 58.1193 41.4959 58.1191L41.4958 56.6191ZM36.1071 61.9043H34.6071V72.4766H36.1071H37.6071V61.9043H36.1071ZM36.1071 72.4766L34.6071 72.4767C34.6074 76.2568 37.7131 79.2615 41.4957 79.2617L41.4958 77.7617L41.4959 76.2617C39.3149 76.2616 37.6072 74.5453 37.6071 72.4765L36.1071 72.4766ZM41.4958 77.7617L41.4958 79.2617C45.2783 79.2617 48.3851 76.2571 48.3854 72.4767L46.8854 72.4766L45.3854 72.4765C45.3853 74.5452 43.6771 76.2617 41.4958 76.2617L41.4958 77.7617ZM46.8854 72.4766H48.3854V61.9043H46.8854H45.3854V72.4766H46.8854ZM46.8854 61.9043L48.3854 61.9042C48.3851 58.1238 45.2783 55.1191 41.4958 55.1191L41.4958 56.6191L41.4958 58.1191C43.677 58.1191 45.3852 59.8357 45.3854 61.9044L46.8854 61.9043ZM41.4958 24.9043L41.4957 23.4043C37.7127 23.4046 34.6071 26.4104 34.6071 30.1904L36.1071 30.1904L37.6071 30.1904C37.6071 28.1213 39.315 26.4044 41.4959 26.4043L41.4958 24.9043ZM36.1071 30.1904H34.6071V40.7617H36.1071H37.6071V30.1904H36.1071ZM36.1071 40.7617L34.6071 40.7617C34.6071 44.5418 37.7127 47.5476 41.4957 47.5479L41.4958 46.0479L41.4959 44.5479C39.315 44.5477 37.6071 42.8309 37.6071 40.7617L36.1071 40.7617ZM41.4958 46.0479L41.4958 47.5479C45.2787 47.5479 48.3854 44.5422 48.3854 40.7617L46.8854 40.7617L45.3854 40.7617C45.3854 42.8308 43.677 44.5479 41.4958 44.5479L41.4958 46.0479ZM46.8854 40.7617H48.3854V30.1904H46.8854H45.3854V40.7617H46.8854ZM46.8854 30.1904L48.3854 30.1904C48.3854 26.41 45.2787 23.4043 41.4958 23.4043L41.4958 24.9043L41.4958 26.4043C43.6769 26.4043 45.3854 28.1214 45.3854 30.1904L46.8854 30.1904Z" fill="#FF8036"/>
</svg>
